Patient4_TMGait_0pt6_02_right_07_EMG.mot
version=1
nRows=30
nColumns=33
inDegrees=no
endheader
time	1LAddLong	2LGlutMax	3LGlutMed	4LIliopsoas	5LSemiMemb	6LBicFemLong	7LRecFem	8LVastMed	9LVastLat	10LGasMed	11LTibAnt	12lTibPost	13LPeroneusLong	14LSol	15LExtDigLong	16LFlexDigLong	17RAddLong	18RGlutMax	19RGlutMed	20RIliopsoas	21RSemiMemb	22RBicFemLong	23RRecFem	24RVastMed	25RVastLat	26RGasMed	27RTibAnt	28RTibPost	29RPeroneusLong	30RSol	31RExtDigLong	32RFlexDigLong
7.85	-0.007172	-0.17777	0.000916	0.014648	-0.023499	0.005035	0.14786	0.003204	-0.16342	-0.41489	0.001984	0.036926	0.019989	0.3122	-0.033875	-0.002289	0.028076	-0.059204	-0.15366	-0.050507	0.000153	-0.009308	0.002289	-0.050964	-0.032806	0.004578	0.18417	-0.007172	0.38483	-0.046692	-0.000305	0.001831
7.851	-0.007324	-0.16876	0.008545	-0.007019	0.057983	-0.11932	0.20264	-0.00412	-0.13763	-0.32166	0.03952	0.006256	0.063782	0.2388	-0.067139	-0.014343	0.033569	-0.083313	-0.13382	0.044708	-0.001831	0.010529	-0.037994	-0.10742	-0.037689	0.002136	0.12573	0.002136	0.2887	-0.056763	0.000153	-0.000305
7.852	0.002594	-0.18967	0.03952	-0.009003	0.10025	-0.14847	0.21042	-0.001068	0.015411	-0.17868	0.054016	-0.000153	-0.18005	0.096283	-0.066528	-0.007324	0.018616	-0.088501	-0.13519	0.059814	-0.00351	0.019531	-0.09079	-0.12665	-0.02594	-0.000153	-0.27863	-0.000916	0.18463	-0.072327	-0.005188	-0.002747
7.853	0.001221	-0.14648	0.013733	0.005493	0.048676	-0.11246	0.20218	0.003357	0.03891	0.048981	0.031128	-0.001221	0.14069	0.001373	-0.059967	-0.003204	0.054016	-0.084686	-0.10284	0.024414	-0.010681	0.017548	0.042877	-0.098114	-0.006561	-0.002136	-0.36713	0.000305	0.17273	-0.08255	0.000916	-0.00824
7.854	-0.006866	-0.11719	-0.079803	-0.001526	-0.029755	0.026398	0.17532	0.003052	-0.005798	0.1004	0.012817	-0.010834	0.53482	0.013428	-0.050201	0.001526	0.033417	-0.073395	-0.036774	0.022125	-0.008392	0.023956	0.10452	-0.14572	-0.010529	-0.00473	-0.27054	-0.000763	0.1236	-0.061188	-0.001678	0.007172
7.855	-0.008087	-0.10925	-0.043945	-0.016632	-0.056763	-0.005188	0.1503	0.000458	-0.019226	0.09079	0.006561	-0.007782	0.31815	0.057983	-0.080261	-0.000916	-0.014496	-0.04303	0.33905	-0.066223	-0.001373	0.02182	0.089874	-0.087433	-0.011292	0.001984	-0.27802	0.000763	0.090027	-0.046082	-0.003052	0.006409
7.856	-0.002747	-0.09079	0.015869	-0.011902	0.002289	-0.091553	0.14664	-0.000916	-0.020447	-0.017242	0.023346	0.000153	-0.44037	0.23132	0.034485	-0.001373	-0.06958	-0.015106	0.2446	-0.096436	0.000916	0.031738	0.103	-0.089874	-0.021362	-0.013123	-0.24277	-0.001373	0.055389	0.012207	0.000916	0.000153
7.857	0.00885	-0.077362	0.084076	0.005646	0.057068	-0.058136	0.13214	0.006561	-0.030212	-0.13672	0.027008	-0.026398	-0.63278	0.30045	0.10986	0.005188	-0.12558	-0.015411	-0.015106	-0.10483	0.010681	0.017853	-0.001984	-0.035248	-0.008698	-0.013733	0.01236	0.00061	-0.010071	0.000458	0.000458	-0.002136
7.858	-0.001984	-0.1152	0.077057	-0.005951	0.027771	0.013885	0.15625	0.005798	-0.037842	-0.071716	0.027466	0.02655	-0.33539	0.26977	0.10498	0.008087	-0.12924	-0.035706	0.030518	-0.15533	0.008392	0.019531	-0.003204	0.000763	-0.002899	-0.013123	0.19043	0	-0.037842	-0.042114	0	-0.010223
7.859	-0.001526	-0.11551	0.025787	-0.001678	0.014191	0.0354	0.15045	0.007782	-0.028687	-0.063324	-0.001221	0.024261	-0.12665	0.21606	0.11322	0.008392	-0.12131	-0.085602	-0.039215	-0.2034	-0.001984	0.007629	-0.049133	0.005341	-0.022125	-0.00885	0.30975	0.002594	-0.007782	-0.093384	-0.003052	-0.011292
7.86	0.002747	-0.089569	0.023804	0.000916	-0.067596	-0.023346	0.15091	0.007629	-0.028076	-0.02594	-0.001221	0.006104	-0.20706	0.12772	0.062866	-0.011902	-0.103	-0.084991	0.075073	-0.1889	-0.001526	0.020447	-0.085297	-0.002136	-0.019379	-0.006409	0.35828	-0.003357	-0.022278	-0.094604	-0.004272	-0.006866
7.861	-0.013885	-0.074768	-0.017395	0.016327	-0.028076	-0.089722	0.14633	0.005646	-0.024719	0.049286	0.016327	-0.000916	0.38666	-0.049133	-0.072174	-0.010681	-0.096588	-0.087585	0.19852	-0.1709	0	0.015259	-0.16068	-0.031281	-0.020905	-0.010071	0.22064	-0.000305	-0.092163	-0.038605	-0.001526	0.004272
7.862	0.007477	-0.048676	-0.052032	0.014954	-0.03891	-0.1767	0.10208	0.000153	0.012054	-0.068817	0.005951	0	0.56229	-0.14221	-0.065918	-0.001221	-0.07309	-0.10147	0.23163	-0.084229	0.002289	0.023804	-0.31982	-0.06897	-0.041199	-0.010071	0.17166	-0.003357	-0.10849	0.009308	0	-0.014343
7.863	0.006561	-0.025787	-0.001984	0.001373	-0.005188	-0.10284	0.10742	0.003967	0.033417	-0.28198	-0.032806	0.012207	0.045471	-0.16846	0.030823	0.000916	-0.060883	-0.039673	0.053101	-0.066986	0.009155	0.040436	-0.25513	-0.036011	-0.013123	-0.004272	0.37338	0.000763	-0.036316	-0.089569	-0.005493	-0.006866
7.864	0.00351	-0.046082	0.04776	0.018463	0.079651	0.011749	0.14267	0.003967	-0.004272	-0.44403	-0.024872	-0.00824	-0.26642	0.013275	0.038605	-0.003967	-0.049286	-0.084686	0.11643	-0.000305	0.007172	0.02594	-0.13504	0.007477	0.00061	0.007324	0.22766	-0.002747	0.10147	-0.12268	0.000305	-0.00061
7.865	-0.000305	-0.005951	0.14633	0.009155	0.075531	0.032196	0.11124	-0.000305	-0.034943	-0.33722	0.009613	0.009766	-0.1474	0.13596	0.004578	0.007782	-0.041199	-0.10254	0.11139	0.001221	0.018616	0.050354	-0.062714	0.017548	0.012817	0.00351	-0.091553	0.000153	0.003204	-0.026855	0.001526	-0.001526
7.866	-0.005951	-0.054932	0.072937	0.006866	0.061493	0.041351	0.13825	0.006104	-0.049286	-0.14145	0.028381	0.016785	-0.096283	0.19745	-0.001526	-0.000916	-0.015564	-0.089264	0.059357	-0.006104	0.024109	0.065155	-0.073547	-0.017548	-0.018311	0.001526	0.002136	-0.003204	-0.006409	-0.006714	0.000763	-0.000916
7.867	-0.00412	-0.063477	-0.018921	0.001678	-0.012665	0.019073	0.14664	0.007629	-0.042725	-0.031281	0.029602	0.01236	-0.058136	0.26733	0.009155	0.006104	0.005951	-0.12894	-0.084076	0.096436	0.028229	0.059967	-0.051575	-0.052795	0.006714	0.001068	0.13382	0.00061	0.01236	0.005646	-0.004272	-0.005951
7.868	0.009003	-0.059509	0.006409	0.012817	-0.047302	-0.022888	0.11902	0.004883	-0.030212	0.08728	-0.022888	-0.010223	0.0177	0.11139	-0.016632	0.007477	0.017548	-0.075836	-0.12924	0.18402	0.019226	0.05722	-0.046844	-0.014648	0.018616	-0.006561	0.19577	-0.001373	-0.043488	0.015106	0.000305	-0.000153
7.869	0.006409	-0.000458	0.067139	0.006561	0.007172	-0.003662	0.11612	0.002594	-0.010376	0.18127	0.017548	0.011597	0.031433	-0.17853	-0.019226	0.00351	0.026703	-0.073395	-0.10803	0.215	0.020142	0.045166	-0.065613	-0.050049	0.015869	-0.01297	-0.29892	0.000763	0.032654	0.011902	-0.000305	0.002594
7.87	0.02121	-0.023193	0.074463	-0.006714	0.062408	0.045624	0.13199	0.002136	-0.007629	0.21591	0.037537	-0.001984	0.063019	-0.27039	-0.026855	-0.002594	0.031128	-0.06546	-0.024719	0.19165	0.013428	0.052795	-0.053406	-0.066681	0.017395	-0.011902	-0.22827	0.000458	0.062714	-0.002747	-0.001373	0.000916
7.871	0.003815	0.025635	-0.033417	-0.003357	0.051575	0.07309	0.16037	0.002289	-0.013123	0.15549	0.013733	-0.006714	0.095673	-0.29159	-0.028992	0.007935	0.058594	-0.078278	-0.033722	0.14008	-0.000458	0.029144	-0.016785	-0.075989	0.010071	-0.007477	-0.010376	-0.006409	-0.061646	0.022888	0.003967	0.001221
7.872	-0.004272	0.043182	0.048676	0.008087	0.033112	0.074615	0.14603	0.006104	-0.037079	0.03067	0.005188	0.014038	0.086365	-0.44968	-0.016479	-0.011902	0.049896	-0.06134	-0.027618	0.094757	-0.002747	0.011597	0.028687	-0.13962	-0.016174	-0.00946	0.095978	-0.000458	-0.13443	0.10223	0.000763	-0.004272
7.873	-0.006561	0.036926	0.014801	0.008392	0.024872	0.05661	0.1059	0.010834	-0.039673	0.26489	0.005493	0.002747	0.03891	-0.42053	-0.025787	0.029602	0.046387	-0.059814	0.059204	0.033417	-0.010071	-0.01236	0.047607	-0.093079	-0.008698	-0.001373	0.008392	0.000305	-0.044861	0.072327	-0.002136	-0.008545
7.874	-0.00351	0.038605	0.010376	0.014343	0.020294	0.050659	0.10147	0.010834	0.00946	0.6044	-0.006256	-0.002899	0.025635	-0.24002	0.001678	0.059357	0.045013	-0.081482	0.011902	-0.008545	-0.015869	-0.011902	0.025635	-0.11185	0.00412	-0.006714	-0.20035	-0.006256	0.13672	0.060425	-0.000153	-0.011749
7.875	0.006866	0.028992	0.009308	0.000763	-0.010376	0.062408	0.14648	0.014801	0.026703	0.27939	0.016785	0.027161	-0.26215	-0.14618	0.027313	-0.076447	0.028229	-0.064392	-0.019684	-0.028534	-0.025787	-0.019073	0.045013	-0.078278	0.010529	-0.003052	-0.24841	-0.003052	0.052185	0.030212	-0.005188	-0.014801
7.876	-0.005493	0.016937	-0.014343	0.02182	-0.016937	0.038452	0.17777	0.016785	0.016785	-0.040588	0.035553	0.023956	-0.33463	-0.13184	0.029755	-0.17868	0.00946	-0.073395	-0.017395	0.046234	-0.003204	0.00061	0.058746	-0.030975	0.000916	0.000458	-0.19348	0.000153	0.081329	-0.013123	-0.001831	-0.001526
7.877	0.003967	0.058594	-0.065155	0.00885	-0.013123	0.026703	0.075226	0.015564	0.00946	-0.22766	0.00885	0.00946	-0.060425	-0.011597	0.005035	0.17181	0.013428	-0.03952	0.052948	0.051727	0.003357	-0.011597	0.054169	-0.067902	-0.00061	0.002136	-0.029602	-0.006866	0.028992	-0.01709	-0.003662	-0.008392
7.878	0.010834	0.078735	-0.027466	-0.004272	0.002899	0.028229	-0.041046	0.009613	0.11917	-0.23025	-0.022736	0.02182	-0.19775	0.15503	-0.025024	0.039368	0.024872	-0.010834	0.009003	0.035248	0.010834	0.005951	0.042267	-0.076141	-0.016937	-0.001373	0.009308	-0.005493	-0.033264	-0.016327	-0.001526	-0.005035
7.879	0.008545	0.08606	0.018005	-0.004272	-0.01709	0.068359	0.009003	0.003967	0.059204	-0.12421	0.000153	0.014496	-0.15869	0.17654	-0.033112	0.059967	0.00473	-0.028229	-0.091248	-0.046844	0.004272	0.009003	0.082703	-0.080261	-0.010223	-0.008698	0.028381	0	0.003815	-0.004883	-0.001831	-0.014191
